<svg xmlns="http://www.w3.org/2000/svg" width="32" height="32" viewBox="0 0 32 32">
    <path fill="#7A4282" fill-rule="evenodd" d="M21 7c.552 0 1 .448 1 1v5h3.52c.303 0 .59.138.78.375L30 18v5.5c0 .552-.448 1-1 1h-1.008c-.002 1.929-1.567 3.492-3.496 3.492-1.866 0-3.391-1.463-3.49-3.304L21 24.5h-9.008c-.002 1.865-1.464 3.387-3.304 3.487l-.192.005c-1.866 0-3.391-1.463-3.49-3.304L5 24.5H3c-.552 0-1-.448-1-1V10c0-1.657 1.343-3 3-3h16zM8.496 22.748c-.965 0-1.748.783-1.748 1.748s.783 1.748 1.748 1.748 1.748-.783 1.748-1.748-.783-1.748-1.748-1.748zm16 0c-.965 0-1.748.783-1.748 1.748s.783 1.748 1.748 1.748 1.748-.783 1.748-1.748-.783-1.748-1.748-1.748zm.554-8.248H22.6c-.166 0-.3.134-.3.3v2.7c0 .276.224.5.5.5h4.525c.065 0 .128-.021.18-.06.133-.1.16-.287.06-.42L25.45 14.7c-.094-.126-.243-.2-.4-.2z"/>
</svg>
