<svg xmlns="http://www.w3.org/2000/svg" width="32" height="32" viewBox="0 0 32 32">
    <path fill="#7A4282" fill-rule="evenodd" d="M16 2.75c3.407 0 6.13 2.942 6.246 6.563l.004.243V11H23c1.657 0 3 1.343 3 3v12c0 1.657-1.343 3-3 3H9c-1.657 0-3-1.343-3-3V14c0-1.657 1.343-3 3-3h.75V9.556c0-3.65 2.648-6.672 6.024-6.802L16 2.75zm0 15c-1.243 0-2.25 1.007-2.25 2.25s1.007 2.25 2.25 2.25 2.25-1.007 2.25-2.25-1.007-2.25-2.25-2.25zm0-12.5c-1.978 0-3.646 1.787-3.745 4.088l-.005.218V11h7.5V9.556c0-2.333-1.608-4.19-3.565-4.3L16 5.25z"/>
</svg>
